<svg width="105" height="105" viewBox="0 0 105 105" fill="none" xmlns="http://www.w3.org/2000/svg">
<path d="M6.81975 81.8775C9.08775 88.8709 15.981 93.3337 23.3363 93.3337H23.625C24.2998 96.6274 26.0909 99.5871 28.6956 101.713C31.3003 103.838 34.5589 104.999 37.9207 105C40.32 105 42.5617 104.396 44.5462 103.357C45.3745 102.903 46.0636 102.232 46.5398 101.416C47.0161 100.6 47.2616 99.6704 47.25 98.7258V5.38519C47.2606 4.18233 46.8566 3.01253 46.1061 2.07256C45.3555 1.1326 44.3041 0.479839 43.1288 0.224103C40.4949 -0.287514 37.7658 0.0833972 35.364 1.27942C31.458 3.14855 29.169 7.32257 29.169 11.6646V11.9534C26.2459 11.3567 23.2101 11.6709 20.4711 12.8537C17.7321 14.0364 15.4217 16.0307 13.8514 18.5676C12.2812 21.1045 11.5267 24.062 11.6897 27.0411C11.8527 30.0202 12.9254 32.8777 14.763 35.2282C10.6474 35.873 6.89785 37.9677 4.19077 41.1342C1.48368 44.3007 -0.00262727 48.3305 3.48631e-06 52.4965C3.48631e-06 58.6815 3.20775 64.1051 8.04825 67.2605C5.79075 71.3085 5.0505 76.4276 6.81975 81.8775ZM90.237 35.2282C92.0746 32.8777 93.1473 30.0202 93.3103 27.0411C93.4733 24.062 92.7188 21.1045 91.1485 18.5676C89.5783 16.0307 87.2679 14.0364 84.5289 12.8537C81.7899 11.6709 78.7541 11.3567 75.831 11.9534V11.6646C75.831 7.32782 73.5367 3.14855 69.6307 1.27942C67.2309 0.0830415 64.5034 -0.287912 61.8713 0.224103C60.6964 0.480742 59.6455 1.13374 58.8951 2.07351C58.1447 3.01327 57.7404 4.18258 57.75 5.38519V98.7206C57.75 100.637 58.758 102.459 60.459 103.351C62.4435 104.396 64.68 105 67.0793 105C70.4418 104.999 73.701 103.837 76.3058 101.711C78.9107 99.584 80.7013 96.6231 81.375 93.3285H81.669C89.019 93.3285 95.9175 88.8657 98.1855 81.8722C99.9547 76.4224 99.2145 71.3033 96.957 67.2553C99.4228 65.662 101.451 63.4768 102.855 60.8989C104.26 58.321 104.998 55.4324 105 52.4965C105.003 48.3305 103.516 44.3007 100.809 41.1342C98.1021 37.9677 94.3526 35.873 90.237 35.2282Z" fill="#303030"/>
</svg>
