<svg width="9935" height="637" viewBox="0 0 9935 637" fill="none" xmlns="http://www.w3.org/2000/svg">
<rect width="9935" height="637" fill="white"/>
<path d="M5550.14 244.325L5624.53 264.163L5626.56 267.679L5606.55 342.014L5536.24 382.604L5558.8 421.68L5645.16 371.819L5658.37 322.776L5687.58 373.38L5707.17 362.073C5717.55 356.076 5725.14 346.207 5728.25 334.638C5731.37 323.07 5729.76 310.748 5723.77 300.384L5695.57 251.54L5757.06 216.037C5763 222.249 5769.88 227.391 5777.52 231.577L5782.6 500.874L5688.21 555.371C5677.82 561.368 5670.24 571.237 5667.12 582.806C5664.01 594.375 5665.62 606.696 5671.6 617.06L5682.88 636.598L6074.55 410.469L6063.27 390.931C6057.29 380.568 6047.42 373.011 6035.85 369.924C6024.27 366.836 6011.93 368.471 6001.54 374.468L5872.1 449.204L5868.06 230.104C5885.04 219.914 5898.22 204.452 5905.59 186.086C5912.95 167.72 5914.09 147.462 5908.83 128.413C5905.64 116.981 5900.23 106.294 5892.89 96.9643C5885.56 87.6347 5876.45 79.8454 5866.09 74.0424C5855.73 68.2394 5844.32 64.5366 5832.52 63.146C5820.71 61.7554 5808.75 62.7043 5797.3 65.9385C5749.39 79.2753 5721.13 128.932 5734.5 176.962L5673.01 212.464L5644.81 163.619C5638.83 153.255 5628.96 145.699 5617.39 142.611C5605.81 139.524 5593.47 141.159 5583.08 147.156L5563.5 158.462L5592.72 209.066L5543.64 195.977L5457.28 245.839L5479.84 284.915L5550.14 244.325ZM5798.81 113.781C5809.2 107.784 5821.54 106.149 5833.12 109.236C5844.69 112.324 5854.56 119.88 5860.54 130.244C5866.52 140.607 5868.14 152.929 5865.02 164.498C5861.91 176.067 5854.32 185.935 5843.93 191.933C5833.55 197.93 5821.21 199.565 5809.63 196.477C5798.06 193.39 5788.19 185.833 5782.21 175.47C5776.22 165.106 5774.61 152.784 5777.73 141.216C5780.84 129.647 5788.43 119.778 5798.81 113.781V113.781Z" fill="#F4F4F4"/>
<path d="M4192.54 140.354L4256.95 123.095M4022.03 341.376L4279.68 272.338M4044.76 490.619L4109.17 473.36M4160.22 502.831C4173.76 510.647 4189.85 512.765 4204.95 508.719C4220.05 504.673 4232.92 494.794 4240.74 481.256C4248.55 467.718 4250.67 451.63 4246.62 436.53C4242.58 421.431 4232.7 408.557 4219.16 400.741C4205.62 392.924 4189.53 390.806 4174.44 394.852C4159.34 398.898 4146.46 408.777 4138.65 422.315C4130.83 435.853 4128.71 451.941 4132.76 467.041C4136.8 482.141 4146.68 495.014 4160.22 502.831V502.831ZM4082.55 212.974C4096.09 220.79 4112.18 222.908 4127.28 218.862C4142.38 214.816 4155.25 204.937 4163.07 191.399C4170.88 177.861 4173 161.773 4168.96 146.673C4164.91 131.574 4155.03 118.7 4141.49 110.884C4127.96 103.067 4111.87 100.949 4096.77 104.995C4081.67 109.041 4068.79 118.92 4060.98 132.458C4053.16 145.996 4051.04 162.084 4055.09 177.184C4059.14 192.283 4069.01 205.157 4082.55 212.974V212.974ZM3912.04 413.995C3925.58 421.811 3941.67 423.929 3956.77 419.883C3971.87 415.837 3984.74 405.959 3992.56 392.421C4000.38 378.883 4002.5 362.794 3998.45 347.695C3994.4 332.595 3984.52 319.721 3970.99 311.905C3957.45 304.089 3941.36 301.971 3926.26 306.017C3911.16 310.063 3898.29 319.941 3890.47 333.479C3882.65 347.017 3880.54 363.105 3884.58 378.205C3888.63 393.305 3898.51 406.179 3912.04 413.995V413.995ZM4330.73 301.809C4344.27 309.625 4360.35 311.744 4375.45 307.698C4390.55 303.652 4403.43 293.773 4411.24 280.235C4419.06 266.697 4421.18 250.609 4417.13 235.509C4413.09 220.409 4403.21 207.535 4389.67 199.719C4376.13 191.903 4360.04 189.785 4344.94 193.831C4329.84 197.877 4316.97 207.755 4309.15 221.293C4301.34 234.831 4299.22 250.92 4303.26 266.02C4307.31 281.119 4317.19 293.993 4330.73 301.809Z" stroke="#F4F4F4" stroke-width="58.3333" stroke-linecap="round" stroke-linejoin="round"/>
</svg>
