<svg width="105" height="105" viewBox="0 0 105 105" fill="none" xmlns="http://www.w3.org/2000/svg">
<path d="M52.5 0C45.6056 0 38.7787 1.35795 32.4091 3.99632C26.0395 6.6347 20.252 10.5018 15.3769 15.3769C5.53123 25.2226 0 38.5761 0 52.5C0 66.4239 5.53123 79.7774 15.3769 89.6231C20.252 94.4982 26.0395 98.3653 32.4091 101.004C38.7787 103.642 45.6056 105 52.5 105C66.4239 105 79.7774 99.4688 89.6231 89.6231C99.4688 79.7774 105 66.4239 105 52.5C105 46.41 103.897 40.3725 101.798 34.7025L93.3975 43.1025C94.1325 46.2 94.5 49.35 94.5 52.5C94.5 63.6391 90.075 74.322 82.1985 82.1985C74.322 90.075 63.6391 94.5 52.5 94.5C41.3609 94.5 30.678 90.075 22.8015 82.1985C14.925 74.322 10.5 63.6391 10.5 52.5C10.5 41.3609 14.925 30.678 22.8015 22.8015C30.678 14.925 41.3609 10.5 52.5 10.5C55.65 10.5 58.8 10.8675 61.8975 11.6025L70.35 3.15C64.6275 1.1025 58.59 0 52.5 0ZM89.25 0L68.25 21V28.875L54.8625 42.2625C54.075 42 53.2875 42 52.5 42C49.7152 42 47.0445 43.1063 45.0754 45.0754C43.1063 47.0445 42 49.7152 42 52.5C42 55.2848 43.1063 57.9555 45.0754 59.9246C47.0445 61.8937 49.7152 63 52.5 63C55.2848 63 57.9555 61.8937 59.9246 59.9246C61.8937 57.9555 63 55.2848 63 52.5C63 51.7125 63 50.925 62.7375 50.1375L76.125 36.75H84L105 15.75H89.25V0ZM52.5 21C44.1457 21 36.1335 24.3187 30.2261 30.2261C24.3187 36.1335 21 44.1457 21 52.5C21 60.8543 24.3187 68.8665 30.2261 74.7739C36.1335 80.6813 44.1457 84 52.5 84C60.8543 84 68.8665 80.6813 74.7739 74.7739C80.6813 68.8665 84 60.8543 84 52.5H73.5C73.5 58.0695 71.2875 63.411 67.3492 67.3492C63.411 71.2875 58.0695 73.5 52.5 73.5C46.9305 73.5 41.589 71.2875 37.6508 67.3492C33.7125 63.411 31.5 58.0695 31.5 52.5C31.5 46.9305 33.7125 41.589 37.6508 37.6508C41.589 33.7125 46.9305 31.5 52.5 31.5V21Z" fill="#303030"/>
</svg>
