<svg width="978" height="365" viewBox="0 0 978 365" fill="none" xmlns="http://www.w3.org/2000/svg">
<path d="M93.5509 0.283466C85.511 1.06741 77.7005 3.46588 70.5654 7.34195C63.4303 11.218 57.1103 16.4958 51.9664 22.8739C46.8224 29.252 42.9551 36.6055 40.5854 44.5146C38.2157 52.4238 37.3899 60.7336 38.1551 68.9696C38.9204 77.2057 41.2618 85.2067 45.0456 92.5158C48.8293 99.8249 53.9814 106.299 60.2077 111.568C66.4339 116.838 73.6124 120.799 81.3332 123.227C89.054 125.655 97.166 126.5 105.206 125.717L103.987 112.597C97.6288 113.217 91.2138 112.548 85.1081 110.628C79.0025 108.708 73.3257 105.575 68.402 101.408C63.4782 97.2411 59.4039 92.1214 56.4117 86.3413C53.4194 80.5612 51.5679 74.2339 50.9627 67.7208C50.3575 61.2077 51.0106 54.6362 52.8846 48.3817C54.7586 42.1271 57.8168 36.3119 61.8847 31.268C65.9526 26.2242 70.9504 22.0505 76.5929 18.9853C82.2354 15.9201 88.412 14.0233 94.77 13.4034L93.5509 0.283466Z" fill="url(#paint0_linear_196_223)"/>
<path d="M96.5509 233.283C88.511 234.067 80.7005 236.466 73.5654 240.342C66.4303 244.218 60.1103 249.496 54.9664 255.874C49.8224 262.252 45.9551 269.606 43.5854 277.515C41.2157 285.424 40.3899 293.734 41.1551 301.97C41.9204 310.206 44.2618 318.207 48.0456 325.516C51.8293 332.825 56.9814 339.299 63.2077 344.568C69.4339 349.838 76.6124 353.799 84.3332 356.227C92.054 358.655 100.166 359.5 108.206 358.717L106.987 345.597C100.629 346.217 94.2138 345.548 88.1081 343.628C82.0025 341.708 76.3257 338.575 71.402 334.408C66.4782 330.241 62.4039 325.121 59.4117 319.341C56.4194 313.561 54.5679 307.234 53.9627 300.721C53.3575 294.208 54.0106 287.636 55.8846 281.382C57.7586 275.127 60.8168 269.312 64.8847 264.268C68.9526 259.224 73.9504 255.051 79.5929 251.985C85.2354 248.92 91.412 247.023 97.77 246.403L96.5509 233.283Z" fill="url(#paint1_linear_196_223)"/>
<path d="M102.668 112.792C116.177 115.112 128.719 121.56 138.554 131.239C148.388 140.918 155.027 153.349 157.549 166.805C160.07 180.261 158.349 194.075 152.624 206.328C146.899 218.582 137.454 228.667 125.602 235.184L119.47 224.365C129.1 219.071 136.773 210.877 141.425 200.922C146.076 190.966 147.474 179.743 145.426 168.811C143.377 157.878 137.984 147.779 129.993 139.915C122.003 132.051 111.813 126.813 100.838 124.928L102.668 112.792Z" fill="url(#paint2_linear_196_223)"/>
<rect x="139.878" y="304" width="169" height="14" rx="7" fill="url(#paint3_linear_196_223)"/>
<rect x="139.878" y="180" width="169" height="14" rx="7" fill="url(#paint4_linear_196_223)"/>
<rect x="139.878" y="56" width="169" height="14" rx="7" fill="url(#paint5_linear_196_223)"/>
<rect x="332.878" y="56" width="193" height="14" rx="7" fill="url(#paint6_linear_196_223)"/>
<rect x="332.878" y="304" width="193" height="14" rx="7" fill="url(#paint7_linear_196_223)"/>
<rect x="525.878" y="56" width="90" height="14" transform="rotate(90 525.878 56)" fill="url(#paint8_linear_196_223)"/>
<rect x="414.878" y="180" width="90" height="14" fill="url(#paint9_linear_196_223)"/>
<rect x="572.878" y="173" width="132" height="14" fill="url(#paint10_linear_196_223)"/>
<rect x="730.878" y="173" width="132" height="14" fill="url(#paint11_linear_196_223)"/>
<rect x="511.878" y="318" width="90" height="14" transform="rotate(-90 511.878 318)" fill="url(#paint12_linear_196_223)"/>
<g filter="url(#filter0_d_196_223)">
<ellipse cx="99.8784" cy="63" rx="48" ry="50" fill="url(#paint13_linear_196_223)" shape-rendering="crispEdges"/>
</g>
<g filter="url(#filter1_d_196_223)">
<ellipse cx="99.8784" cy="176" rx="48" ry="50" fill="url(#paint14_linear_196_223)" shape-rendering="crispEdges"/>
</g>
<g filter="url(#filter2_d_196_223)">
<ellipse cx="99.8784" cy="296" rx="48" ry="50" fill="url(#paint15_linear_196_223)" shape-rendering="crispEdges"/>
</g>
<g filter="url(#filter3_d_196_223)">
<rect x="256.878" y="17" width="180" height="92" rx="17" fill="white"/>
</g>
<g filter="url(#filter4_d_196_223)">
<rect x="610.878" y="131" width="180" height="92" rx="17" fill="white"/>
</g>
<g filter="url(#filter5_d_196_223)">
<rect x="256.878" y="141" width="180" height="92" rx="17" fill="white"/>
</g>
<g filter="url(#filter6_d_196_223)">
<rect x="256.878" y="265" width="180" height="92" rx="17" fill="white"/>
</g>
<path d="M77.8984 60V39.408L73.0384 42.396V36.996L77.8984 34.08H82.9024V60H77.8984Z" fill="#469C57"/>
<path d="M94.6057 65.4545V87.2727H119.151V90H94.6057C93.8824 90 93.1887 89.7127 92.6772 89.2012C92.1658 88.6897 91.8784 87.996 91.8784 87.2727V65.4545H94.6057ZM112.333 69.5455H119.833L112.333 62.0455V69.5455ZM100.06 60H113.697L121.878 68.1818V81.8182C121.878 82.5415 121.591 83.2352 121.08 83.7467C120.568 84.2581 119.874 84.5455 119.151 84.5455H100.06C98.5466 84.5455 97.333 83.3182 97.333 81.8182V62.7273C97.333 62.004 97.6203 61.3103 98.1318 60.7988C98.6432 60.2873 99.3369 60 100.06 60ZM100.06 62.7273V81.8182H119.151V72.2727H109.606V62.7273H100.06Z" fill="#8C8C8C"/>
<g filter="url(#filter7_d_196_223)">
<ellipse cx="901.378" cy="176.5" rx="72.5" ry="75.5" fill="url(#paint16_linear_196_223)"/>
</g>
<g filter="url(#filter8_d_196_223)">
<ellipse cx="518.878" cy="181" rx="53" ry="55" fill="url(#paint17_linear_196_223)" shape-rendering="crispEdges"/>
</g>
<g filter="url(#filter9_d_196_223)">
<ellipse cx="901.878" cy="176.5" rx="60" ry="62.5" fill="url(#paint18_linear_196_223)" shape-rendering="crispEdges"/>
</g>
<path d="M72.6784 170.964V166.716L83.5504 157.068C84.3664 156.348 84.9424 155.67 85.2784 155.034C85.6144 154.398 85.7824 153.804 85.7824 153.252C85.7824 152.46 85.6204 151.758 85.2964 151.146C84.9724 150.522 84.5164 150.036 83.9284 149.688C83.3404 149.328 82.6504 149.148 81.8584 149.148C81.0304 149.148 80.2984 149.34 79.6624 149.724C79.0384 150.096 78.5524 150.594 78.2044 151.218C77.8564 151.83 77.6944 152.496 77.7184 153.216H72.6784C72.6784 151.44 73.0684 149.904 73.8484 148.608C74.6284 147.312 75.7144 146.31 77.1064 145.602C78.4984 144.894 80.1184 144.54 81.9664 144.54C83.6584 144.54 85.1704 144.912 86.5024 145.656C87.8464 146.388 88.9024 147.414 89.6704 148.734C90.4384 150.054 90.8224 151.584 90.8224 153.324C90.8224 154.608 90.6424 155.676 90.2824 156.528C89.9224 157.368 89.3884 158.148 88.6804 158.868C87.9724 159.576 87.1024 160.38 86.0704 161.28L79.0504 167.436L78.6544 166.356H90.8224V170.964H72.6784Z" fill="#469C57"/>
<path d="M102.878 299C104.348 299 105.758 299.585 106.797 300.626C107.836 301.667 108.42 303.079 108.42 304.552C108.42 306.024 107.836 307.436 106.797 308.477C105.758 309.519 104.348 310.103 102.878 310.103C101.409 310.103 99.9991 309.519 98.9599 308.477C97.9206 307.436 97.3368 306.024 97.3368 304.552C97.3368 303.079 97.9206 301.667 98.9599 300.626C99.9991 299.585 101.409 299 102.878 299ZM91.7951 302.966C92.6818 302.966 93.5051 303.203 94.2176 303.632C93.9801 305.9 94.6451 308.152 96.0068 309.913C95.2151 311.436 93.6318 312.483 91.7951 312.483C90.5353 312.483 89.3271 311.981 88.4363 311.089C87.5455 310.197 87.0451 308.986 87.0451 307.724C87.0451 306.462 87.5455 305.252 88.4363 304.359C89.3271 303.467 90.5353 302.966 91.7951 302.966ZM113.962 302.966C115.222 302.966 116.43 303.467 117.321 304.359C118.211 305.252 118.712 306.462 118.712 307.724C118.712 308.986 118.211 310.197 117.321 311.089C116.43 311.981 115.222 312.483 113.962 312.483C112.125 312.483 110.542 311.436 109.75 309.913C111.112 308.152 111.777 305.9 111.539 303.632C112.252 303.203 113.075 302.966 113.962 302.966ZM92.5868 319.224C92.5868 315.941 97.1943 313.276 102.878 313.276C108.563 313.276 113.17 315.941 113.17 319.224V322H92.5868V319.224ZM83.8784 322V319.621C83.8784 317.416 86.8709 315.56 90.9243 315.021C89.9901 316.099 89.4201 317.59 89.4201 319.224V322H83.8784ZM121.878 322H116.337V319.224C116.337 317.59 115.767 316.099 114.833 315.021C118.886 315.56 121.878 317.416 121.878 319.621V322Z" fill="#8C8C8C"/>
<path d="M80.9584 296.468C79.6624 296.468 78.4264 296.21 77.2504 295.694C76.0744 295.166 75.0484 294.428 74.1724 293.48C73.3084 292.532 72.6904 291.416 72.3184 290.132L77.0704 288.872C77.3224 289.82 77.8144 290.558 78.5464 291.086C79.2904 291.602 80.0944 291.86 80.9584 291.86C81.7024 291.86 82.3804 291.68 82.9924 291.32C83.6164 290.96 84.1084 290.474 84.4684 289.862C84.8404 289.25 85.0264 288.572 85.0264 287.828C85.0264 286.712 84.6424 285.758 83.8744 284.966C83.1184 284.162 82.1464 283.76 80.9584 283.76C80.5984 283.76 80.2504 283.814 79.9144 283.922C79.5784 284.018 79.2544 284.156 78.9424 284.336L76.7464 280.484L84.9904 273.644L85.3504 274.688H73.3264V270.08H89.5264V274.688L83.1184 280.88L83.0824 279.512C84.5704 279.74 85.8244 280.262 86.8444 281.078C87.8764 281.882 88.6564 282.878 89.1844 284.066C89.7244 285.242 89.9944 286.496 89.9944 287.828C89.9944 289.46 89.5804 290.93 88.7524 292.238C87.9244 293.534 86.8264 294.566 85.4584 295.334C84.0904 296.09 82.5904 296.468 80.9584 296.468Z" fill="#469C57"/>
<path d="M495.946 179V174.968H484.678V170.396L492.85 153.08H498.466L490.294 170.396H495.946V163.916H500.914V170.396H503.218V174.968H500.914V179H495.946Z" fill="#469C57"/>
<path d="M905.067 155L902.81 157.312L906.154 160.738C906.614 161.273 906.844 161.894 906.844 162.601C906.844 163.308 906.614 163.971 906.154 164.442L898.734 172.172L900.825 174.484L908.412 166.755C909.519 165.491 910.063 164.1 910.063 162.601C910.063 161.102 909.519 159.689 908.412 158.426L905.067 155ZM896.749 159.325L894.492 161.637L895.766 162.836C896.226 163.308 896.456 163.95 896.456 164.742C896.456 165.534 896.226 166.177 895.766 166.648L894.492 167.847L896.749 170.159L897.919 168.853C899.027 167.59 899.591 166.219 899.591 164.742C899.591 163.2 899.027 161.809 897.919 160.524L896.749 159.325ZM918.59 162.729C917.148 162.729 915.811 163.308 914.577 164.442L902.81 176.518L905.067 178.659L916.73 166.755C917.253 166.219 917.88 165.941 918.59 165.941C919.301 165.941 919.928 166.219 920.451 166.755L921.726 168.061L923.878 165.748L922.708 164.442C921.475 163.308 920.095 162.729 918.59 162.729ZM889.329 169.024L878.878 199L908.14 188.294L889.329 169.024ZM914.41 175.576C912.947 175.576 911.609 176.154 910.355 177.289L907.032 180.693L909.289 183.006L912.613 179.601C913.135 179.066 913.72 178.788 914.41 178.788C915.1 178.788 915.727 179.066 916.25 179.601L919.635 183.006L921.83 180.8L918.486 177.289C917.253 176.154 915.873 175.576 914.41 175.576Z" fill="#469C57"/>
<path d="M297.138 57V44.04H302.61C302.736 44.04 302.904 44.046 303.114 44.058C303.33 44.064 303.522 44.082 303.69 44.112C304.464 44.232 305.097 44.487 305.589 44.877C306.087 45.267 306.453 45.759 306.687 46.353C306.921 46.941 307.038 47.598 307.038 48.324C307.038 49.05 306.918 49.71 306.678 50.304C306.444 50.892 306.078 51.381 305.58 51.771C305.088 52.161 304.458 52.416 303.69 52.536C303.522 52.56 303.33 52.578 303.114 52.59C302.898 52.602 302.73 52.608 302.61 52.608H299.586V57H297.138ZM299.586 50.322H302.502C302.628 50.322 302.766 50.316 302.916 50.304C303.066 50.292 303.204 50.268 303.33 50.232C303.66 50.142 303.915 49.992 304.095 49.782C304.275 49.566 304.398 49.329 304.464 49.071C304.536 48.807 304.572 48.558 304.572 48.324C304.572 48.09 304.536 47.844 304.464 47.586C304.398 47.322 304.275 47.085 304.095 46.875C303.915 46.659 303.66 46.506 303.33 46.416C303.204 46.38 303.066 46.356 302.916 46.344C302.766 46.332 302.628 46.326 302.502 46.326H299.586V50.322ZM308.845 57V44.04H314.317C314.443 44.04 314.611 44.046 314.821 44.058C315.037 44.064 315.229 44.082 315.397 44.112C316.171 44.232 316.804 44.487 317.296 44.877C317.794 45.267 318.16 45.759 318.394 46.353C318.628 46.941 318.745 47.598 318.745 48.324C318.745 49.41 318.475 50.34 317.935 51.114C317.395 51.882 316.549 52.356 315.397 52.536L314.317 52.608H311.293V57H308.845ZM316.153 57L313.597 51.726L316.117 51.24L318.925 57H316.153ZM311.293 50.322H314.209C314.335 50.322 314.473 50.316 314.623 50.304C314.773 50.292 314.911 50.268 315.037 50.232C315.367 50.142 315.622 49.992 315.802 49.782C315.982 49.566 316.105 49.329 316.171 49.071C316.243 48.807 316.279 48.558 316.279 48.324C316.279 48.09 316.243 47.844 316.171 47.586C316.105 47.322 315.982 47.085 315.802 46.875C315.622 46.659 315.367 46.506 315.037 46.416C314.911 46.38 314.773 46.356 314.623 46.344C314.473 46.332 314.335 46.326 314.209 46.326H311.293V50.322ZM326.466 57.27C325.17 57.27 324.051 56.988 323.109 56.424C322.173 55.86 321.45 55.071 320.94 54.057C320.436 53.043 320.184 51.864 320.184 50.52C320.184 49.176 320.436 47.997 320.94 46.983C321.45 45.969 322.173 45.18 323.109 44.616C324.051 44.052 325.17 43.77 326.466 43.77C327.762 43.77 328.878 44.052 329.814 44.616C330.756 45.18 331.479 45.969 331.983 46.983C332.493 47.997 332.748 49.176 332.748 50.52C332.748 51.864 332.493 53.043 331.983 54.057C331.479 55.071 330.756 55.86 329.814 56.424C328.878 56.988 327.762 57.27 326.466 57.27ZM326.466 54.966C327.288 54.978 327.972 54.801 328.518 54.435C329.064 54.069 329.472 53.55 329.742 52.878C330.018 52.206 330.156 51.42 330.156 50.52C330.156 49.62 330.018 48.84 329.742 48.18C329.472 47.52 329.064 47.007 328.518 46.641C327.972 46.275 327.288 46.086 326.466 46.074C325.644 46.062 324.96 46.239 324.414 46.605C323.868 46.971 323.457 47.49 323.181 48.162C322.911 48.834 322.776 49.62 322.776 50.52C322.776 51.42 322.911 52.2 323.181 52.86C323.457 53.52 323.868 54.033 324.414 54.399C324.96 54.765 325.644 54.954 326.466 54.966ZM337.263 57.27C336.231 57.27 335.379 57.006 334.707 56.478C334.041 55.95 333.567 55.236 333.285 54.336L335.697 53.76C335.751 54.09 335.925 54.378 336.219 54.624C336.513 54.864 336.825 54.984 337.155 54.984C337.383 54.984 337.626 54.921 337.884 54.795C338.148 54.669 338.337 54.468 338.451 54.192C338.523 54.018 338.565 53.805 338.577 53.553C338.589 53.301 338.595 53.01 338.595 52.68V44.04H341.079V52.68C341.079 53.094 341.076 53.454 341.07 53.76C341.07 54.066 341.04 54.354 340.98 54.624C340.926 54.888 340.815 55.164 340.647 55.452C340.281 56.088 339.804 56.55 339.216 56.838C338.628 57.126 337.977 57.27 337.263 57.27ZM343.773 57V44.04H352.233V46.326H346.221V49.098H351.153V51.384H346.221V54.714H352.233V57H343.773ZM357.396 57V46.326H353.31V44.04H363.93V46.326H359.844V57H357.396ZM370.939 57.27C369.643 57.27 368.524 56.988 367.582 56.424C366.646 55.86 365.923 55.071 365.413 54.057C364.909 53.043 364.657 51.864 364.657 50.52C364.657 49.176 364.909 47.997 365.413 46.983C365.923 45.969 366.646 45.18 367.582 44.616C368.524 44.052 369.643 43.77 370.939 43.77C372.235 43.77 373.351 44.052 374.287 44.616C375.229 45.18 375.952 45.969 376.456 46.983C376.966 47.997 377.221 49.176 377.221 50.52C377.221 51.864 376.966 53.043 376.456 54.057C375.952 55.071 375.229 55.86 374.287 56.424C373.351 56.988 372.235 57.27 370.939 57.27ZM370.939 54.966C371.761 54.978 372.445 54.801 372.991 54.435C373.537 54.069 373.945 53.55 374.215 52.878C374.491 52.206 374.629 51.42 374.629 50.52C374.629 49.62 374.491 48.84 374.215 48.18C373.945 47.52 373.537 47.007 372.991 46.641C372.445 46.275 371.761 46.086 370.939 46.074C370.117 46.062 369.433 46.239 368.887 46.605C368.341 46.971 367.93 47.49 367.654 48.162C367.384 48.834 367.249 49.62 367.249 50.52C367.249 51.42 367.384 52.2 367.654 52.86C367.93 53.52 368.341 54.033 368.887 54.399C369.433 54.765 370.117 54.954 370.939 54.966ZM297.318 82V69.04H299.766V82H297.318ZM302.465 82V69.04H304.949L310.583 77.68V69.04H313.067V82H310.583L304.949 73.36V82H302.465ZM315.578 82V69.04H319.772C319.874 69.04 320.084 69.043 320.402 69.049C320.72 69.055 321.026 69.076 321.32 69.112C322.364 69.238 323.249 69.601 323.975 70.201C324.701 70.801 325.253 71.563 325.631 72.487C326.009 73.411 326.198 74.422 326.198 75.52C326.198 76.618 326.009 77.629 325.631 78.553C325.253 79.477 324.701 80.239 323.975 80.839C323.249 81.439 322.364 81.802 321.32 81.928C321.026 81.964 320.72 81.985 320.402 81.991C320.084 81.997 319.874 82 319.772 82H315.578ZM318.062 79.696H319.772C319.934 79.696 320.153 79.693 320.429 79.687C320.705 79.675 320.954 79.648 321.176 79.606C321.74 79.492 322.199 79.228 322.553 78.814C322.913 78.4 323.177 77.902 323.345 77.32C323.519 76.738 323.606 76.138 323.606 75.52C323.606 74.872 323.516 74.257 323.336 73.675C323.162 73.093 322.895 72.601 322.535 72.199C322.175 71.797 321.722 71.542 321.176 71.434C320.954 71.386 320.705 71.359 320.429 71.353C320.153 71.347 319.934 71.344 319.772 71.344H318.062V79.696ZM328.537 82V69.04H330.985V82H328.537ZM336.473 82L332.513 69.04H335.033L338.273 79.696L341.567 69.04H344.087L340.127 82H336.473ZM345.623 82V69.04H348.071V82H345.623ZM350.769 82V69.04H354.963C355.065 69.04 355.275 69.043 355.593 69.049C355.911 69.055 356.217 69.076 356.511 69.112C357.555 69.238 358.44 69.601 359.166 70.201C359.892 70.801 360.444 71.563 360.822 72.487C361.2 73.411 361.389 74.422 361.389 75.52C361.389 76.618 361.2 77.629 360.822 78.553C360.444 79.477 359.892 80.239 359.166 80.839C358.44 81.439 357.555 81.802 356.511 81.928C356.217 81.964 355.911 81.985 355.593 81.991C355.275 81.997 355.065 82 354.963 82H350.769ZM353.253 79.696H354.963C355.125 79.696 355.344 79.693 355.62 79.687C355.896 79.675 356.145 79.648 356.367 79.606C356.931 79.492 357.39 79.228 357.744 78.814C358.104 78.4 358.368 77.902 358.536 77.32C358.71 76.738 358.797 76.138 358.797 75.52C358.797 74.872 358.707 74.257 358.527 73.675C358.353 73.093 358.086 72.601 357.726 72.199C357.366 71.797 356.913 71.542 356.367 71.434C356.145 71.386 355.896 71.359 355.62 71.353C355.344 71.347 355.125 71.344 354.963 71.344H353.253V79.696ZM368.823 82.27C367.779 82.27 366.861 82.06 366.069 81.64C365.277 81.214 364.659 80.617 364.215 79.849C363.771 79.081 363.549 78.178 363.549 77.14V69.058L366.033 69.04V77.122C366.033 77.548 366.105 77.935 366.249 78.283C366.393 78.631 366.591 78.931 366.843 79.183C367.101 79.435 367.398 79.63 367.734 79.768C368.076 79.9 368.439 79.966 368.823 79.966C369.219 79.966 369.585 79.897 369.921 79.759C370.263 79.621 370.56 79.426 370.812 79.174C371.064 78.922 371.259 78.622 371.397 78.274C371.541 77.926 371.613 77.542 371.613 77.122V69.04H374.097V77.14C374.097 78.178 373.875 79.081 373.431 79.849C372.987 80.617 372.369 81.214 371.577 81.64C370.785 82.06 369.867 82.27 368.823 82.27ZM375.164 82L379.124 69.04H382.778L386.738 82H384.218L380.69 70.57H381.158L377.684 82H375.164ZM377.54 79.3V77.014H384.38V79.3H377.54ZM388.531 82V69.04H390.979V79.714H396.559V82H388.531Z" fill="#72B37F"/>
<path d="M278.238 182L282.198 169.04H285.852L289.812 182H287.292L283.764 170.57H284.232L280.758 182H278.238ZM280.614 179.3V177.014H287.454V179.3H280.614ZM291.426 182V169.04H296.898C297.024 169.04 297.192 169.046 297.402 169.058C297.618 169.064 297.81 169.082 297.978 169.112C298.752 169.232 299.385 169.487 299.877 169.877C300.375 170.267 300.741 170.759 300.975 171.353C301.209 171.941 301.326 172.598 301.326 173.324C301.326 174.05 301.206 174.71 300.966 175.304C300.732 175.892 300.366 176.381 299.868 176.771C299.376 177.161 298.746 177.416 297.978 177.536C297.81 177.56 297.618 177.578 297.402 177.59C297.186 177.602 297.018 177.608 296.898 177.608H293.874V182H291.426ZM293.874 175.322H296.79C296.916 175.322 297.054 175.316 297.204 175.304C297.354 175.292 297.492 175.268 297.618 175.232C297.948 175.142 298.203 174.992 298.383 174.782C298.563 174.566 298.686 174.329 298.752 174.071C298.824 173.807 298.86 173.558 298.86 173.324C298.86 173.09 298.824 172.844 298.752 172.586C298.686 172.322 298.563 172.085 298.383 171.875C298.203 171.659 297.948 171.506 297.618 171.416C297.492 171.38 297.354 171.356 297.204 171.344C297.054 171.332 296.916 171.326 296.79 171.326H293.874V175.322ZM303.133 182V169.04H308.605C308.731 169.04 308.899 169.046 309.109 169.058C309.325 169.064 309.517 169.082 309.685 169.112C310.459 169.232 311.092 169.487 311.584 169.877C312.082 170.267 312.448 170.759 312.682 171.353C312.916 171.941 313.033 172.598 313.033 173.324C313.033 174.41 312.763 175.34 312.223 176.114C311.683 176.882 310.837 177.356 309.685 177.536L308.605 177.608H305.581V182H303.133ZM310.441 182L307.885 176.726L310.405 176.24L313.213 182H310.441ZM305.581 175.322H308.497C308.623 175.322 308.761 175.316 308.911 175.304C309.061 175.292 309.199 175.268 309.325 175.232C309.655 175.142 309.91 174.992 310.09 174.782C310.27 174.566 310.393 174.329 310.459 174.071C310.531 173.807 310.567 173.558 310.567 173.324C310.567 173.09 310.531 172.844 310.459 172.586C310.393 172.322 310.27 172.085 310.09 171.875C309.91 171.659 309.655 171.506 309.325 171.416C309.199 171.38 309.061 171.356 308.911 171.344C308.761 171.332 308.623 171.326 308.497 171.326H305.581V175.322ZM315.191 182V169.04H323.651V171.326H317.639V174.098H322.571V176.384H317.639V179.714H323.651V182H315.191ZM330.704 182.27C329.744 182.27 328.877 182.102 328.103 181.766C327.335 181.424 326.702 180.938 326.204 180.308C325.712 179.672 325.4 178.916 325.268 178.04L327.824 177.662C328.004 178.406 328.376 178.979 328.94 179.381C329.504 179.783 330.146 179.984 330.866 179.984C331.268 179.984 331.658 179.921 332.036 179.795C332.414 179.669 332.723 179.483 332.963 179.237C333.209 178.991 333.332 178.688 333.332 178.328C333.332 178.196 333.311 178.07 333.269 177.95C333.233 177.824 333.17 177.707 333.08 177.599C332.99 177.491 332.861 177.389 332.693 177.293C332.531 177.197 332.324 177.11 332.072 177.032L328.706 176.042C328.454 175.97 328.16 175.868 327.824 175.736C327.494 175.604 327.173 175.415 326.861 175.169C326.549 174.923 326.288 174.599 326.078 174.197C325.874 173.789 325.772 173.276 325.772 172.658C325.772 171.788 325.991 171.065 326.429 170.489C326.867 169.913 327.452 169.484 328.184 169.202C328.916 168.92 329.726 168.782 330.614 168.788C331.508 168.8 332.306 168.953 333.008 169.247C333.71 169.541 334.298 169.97 334.772 170.534C335.246 171.092 335.588 171.776 335.798 172.586L333.152 173.036C333.056 172.616 332.879 172.262 332.621 171.974C332.363 171.686 332.054 171.467 331.694 171.317C331.34 171.167 330.968 171.086 330.578 171.074C330.194 171.062 329.831 171.116 329.489 171.236C329.153 171.35 328.877 171.518 328.661 171.74C328.451 171.962 328.346 172.226 328.346 172.532C328.346 172.814 328.433 173.045 328.607 173.225C328.781 173.399 329 173.54 329.264 173.648C329.528 173.756 329.798 173.846 330.074 173.918L332.324 174.53C332.66 174.62 333.032 174.74 333.44 174.89C333.848 175.034 334.238 175.238 334.61 175.502C334.988 175.76 335.297 176.102 335.537 176.528C335.783 176.954 335.906 177.494 335.906 178.148C335.906 178.844 335.759 179.453 335.465 179.975C335.177 180.491 334.787 180.92 334.295 181.262C333.803 181.598 333.245 181.85 332.621 182.018C332.003 182.186 331.364 182.27 330.704 182.27ZM337.885 182V169.04H346.345V171.326H340.333V174.098H345.265V176.384H340.333V179.714H346.345V182H337.885ZM348.502 182V169.04H350.986L356.62 177.68V169.04H359.104V182H356.62L350.986 173.36V182H348.502ZM364.621 182V171.326H360.535V169.04H371.155V171.326H367.069V182H364.621ZM371.35 182L375.31 169.04H378.964L382.924 182H380.404L376.876 170.57H377.344L373.87 182H371.35ZM373.726 179.3V177.014H380.566V179.3H373.726ZM389.531 186.356C389.279 186.356 389.048 186.323 388.838 186.257C388.628 186.191 388.433 186.11 388.253 186.014L388.775 184.61C389.009 184.682 389.189 184.718 389.315 184.718C389.477 184.718 389.6 184.673 389.684 184.583C389.774 184.493 389.819 184.4 389.819 184.304C389.819 184.088 389.702 183.926 389.468 183.818C389.24 183.716 388.967 183.62 388.649 183.53L389.279 181.694L390.701 181.676L390.377 182.648C390.731 182.828 391.001 183.059 391.187 183.341C391.379 183.629 391.475 183.968 391.475 184.358C391.475 184.952 391.28 185.432 390.89 185.798C390.506 186.17 390.053 186.356 389.531 186.356ZM389.747 182.27C388.451 182.27 387.332 181.988 386.39 181.424C385.454 180.86 384.731 180.071 384.221 179.057C383.717 178.043 383.465 176.864 383.465 175.52C383.465 174.176 383.717 172.997 384.221 171.983C384.731 170.969 385.454 170.18 386.39 169.616C387.332 169.052 388.451 168.77 389.747 168.77C391.235 168.77 392.483 169.139 393.491 169.877C394.505 170.615 395.219 171.614 395.633 172.874L393.167 173.558C392.927 172.772 392.522 172.163 391.952 171.731C391.382 171.293 390.647 171.074 389.747 171.074C388.925 171.074 388.238 171.257 387.686 171.623C387.14 171.989 386.729 172.505 386.453 173.171C386.177 173.837 386.039 174.62 386.039 175.52C386.039 176.42 386.177 177.203 386.453 177.869C386.729 178.535 387.14 179.051 387.686 179.417C388.238 179.783 388.925 179.966 389.747 179.966C390.647 179.966 391.382 179.747 391.952 179.309C392.522 178.871 392.927 178.262 393.167 177.482L395.633 178.166C395.219 179.426 394.505 180.425 393.491 181.163C392.483 181.901 391.235 182.27 389.747 182.27ZM403.707 167.186C403.413 167.186 403.131 167.12 402.861 166.988C402.597 166.85 402.342 166.694 402.096 166.52C401.856 166.346 401.631 166.193 401.421 166.061C401.211 165.923 401.019 165.854 400.845 165.854C400.665 165.854 400.539 165.956 400.467 166.16C400.401 166.358 400.407 166.61 400.485 166.916H398.973C398.787 166.13 398.823 165.467 399.081 164.927C399.345 164.381 399.855 164.108 400.611 164.108C400.905 164.108 401.184 164.177 401.448 164.315C401.718 164.447 401.973 164.6 402.213 164.774C402.459 164.948 402.687 165.104 402.897 165.242C403.107 165.374 403.299 165.44 403.473 165.44C403.653 165.44 403.779 165.341 403.851 165.143C403.923 164.939 403.917 164.684 403.833 164.378H405.345C405.537 165.158 405.501 165.821 405.237 166.367C404.973 166.913 404.463 167.186 403.707 167.186ZM396.363 182L400.323 169.04H403.977L407.937 182H405.417L401.889 170.57H402.357L398.883 182H396.363ZM398.739 179.3V177.014H405.579V179.3H398.739ZM414.761 182.27C413.465 182.27 412.346 181.988 411.404 181.424C410.468 180.86 409.745 180.071 409.235 179.057C408.731 178.043 408.479 176.864 408.479 175.52C408.479 174.176 408.731 172.997 409.235 171.983C409.745 170.969 410.468 170.18 411.404 169.616C412.346 169.052 413.465 168.77 414.761 168.77C416.057 168.77 417.173 169.052 418.109 169.616C419.051 170.18 419.774 170.969 420.278 171.983C420.788 172.997 421.043 174.176 421.043 175.52C421.043 176.864 420.788 178.043 420.278 179.057C419.774 180.071 419.051 180.86 418.109 181.424C417.173 181.988 416.057 182.27 414.761 182.27ZM414.761 179.966C415.583 179.978 416.267 179.801 416.813 179.435C417.359 179.069 417.767 178.55 418.037 177.878C418.313 177.206 418.451 176.42 418.451 175.52C418.451 174.62 418.313 173.84 418.037 173.18C417.767 172.52 417.359 172.007 416.813 171.641C416.267 171.275 415.583 171.086 414.761 171.074C413.939 171.062 413.255 171.239 412.709 171.605C412.163 171.971 411.752 172.49 411.476 173.162C411.206 173.834 411.071 174.62 411.071 175.52C411.071 176.42 411.206 177.2 411.476 177.86C411.752 178.52 412.163 179.033 412.709 179.399C413.255 179.765 413.939 179.954 414.761 179.966ZM279.138 207V194.04H283.332C283.434 194.04 283.644 194.043 283.962 194.049C284.28 194.055 284.586 194.076 284.88 194.112C285.924 194.238 286.809 194.601 287.535 195.201C288.261 195.801 288.813 196.563 289.191 197.487C289.569 198.411 289.758 199.422 289.758 200.52C289.758 201.618 289.569 202.629 289.191 203.553C288.813 204.477 288.261 205.239 287.535 205.839C286.809 206.439 285.924 206.802 284.88 206.928C284.586 206.964 284.28 206.985 283.962 206.991C283.644 206.997 283.434 207 283.332 207H279.138ZM281.622 204.696H283.332C283.494 204.696 283.713 204.693 283.989 204.687C284.265 204.675 284.514 204.648 284.736 204.606C285.3 204.492 285.759 204.228 286.113 203.814C286.473 203.4 286.737 202.902 286.905 202.32C287.079 201.738 287.166 201.138 287.166 200.52C287.166 199.872 287.076 199.257 286.896 198.675C286.722 198.093 286.455 197.601 286.095 197.199C285.735 196.797 285.282 196.542 284.736 196.434C284.514 196.386 284.265 196.359 283.989 196.353C283.713 196.347 283.494 196.344 283.332 196.344H281.622V204.696ZM297.48 207.27C296.184 207.27 295.065 206.988 294.123 206.424C293.187 205.86 292.464 205.071 291.954 204.057C291.45 203.043 291.198 201.864 291.198 200.52C291.198 199.176 291.45 197.997 291.954 196.983C292.464 195.969 293.187 195.18 294.123 194.616C295.065 194.052 296.184 193.77 297.48 193.77C298.776 193.77 299.892 194.052 300.828 194.616C301.77 195.18 302.493 195.969 302.997 196.983C303.507 197.997 303.762 199.176 303.762 200.52C303.762 201.864 303.507 203.043 302.997 204.057C302.493 205.071 301.77 205.86 300.828 206.424C299.892 206.988 298.776 207.27 297.48 207.27ZM297.48 204.966C298.302 204.978 298.986 204.801 299.532 204.435C300.078 204.069 300.486 203.55 300.756 202.878C301.032 202.206 301.17 201.42 301.17 200.52C301.17 199.62 301.032 198.84 300.756 198.18C300.486 197.52 300.078 197.007 299.532 196.641C298.986 196.275 298.302 196.086 297.48 196.074C296.658 196.062 295.974 196.239 295.428 196.605C294.882 196.971 294.471 197.49 294.195 198.162C293.925 198.834 293.79 199.62 293.79 200.52C293.79 201.42 293.925 202.2 294.195 202.86C294.471 203.52 294.882 204.033 295.428 204.399C295.974 204.765 296.658 204.954 297.48 204.966ZM310.454 207.27C309.494 207.27 308.627 207.102 307.853 206.766C307.085 206.424 306.452 205.938 305.954 205.308C305.462 204.672 305.15 203.916 305.018 203.04L307.574 202.662C307.754 203.406 308.126 203.979 308.69 204.381C309.254 204.783 309.896 204.984 310.616 204.984C311.018 204.984 311.408 204.921 311.786 204.795C312.164 204.669 312.473 204.483 312.713 204.237C312.959 203.991 313.082 203.688 313.082 203.328C313.082 203.196 313.061 203.07 313.019 202.95C312.983 202.824 312.92 202.707 312.83 202.599C312.74 202.491 312.611 202.389 312.443 202.293C312.281 202.197 312.074 202.11 311.822 202.032L308.456 201.042C308.204 200.97 307.91 200.868 307.574 200.736C307.244 200.604 306.923 200.415 306.611 200.169C306.299 199.923 306.038 199.599 305.828 199.197C305.624 198.789 305.522 198.276 305.522 197.658C305.522 196.788 305.741 196.065 306.179 195.489C306.617 194.913 307.202 194.484 307.934 194.202C308.666 193.92 309.476 193.782 310.364 193.788C311.258 193.8 312.056 193.953 312.758 194.247C313.46 194.541 314.048 194.97 314.522 195.534C314.996 196.092 315.338 196.776 315.548 197.586L312.902 198.036C312.806 197.616 312.629 197.262 312.371 196.974C312.113 196.686 311.804 196.467 311.444 196.317C311.09 196.167 310.718 196.086 310.328 196.074C309.944 196.062 309.581 196.116 309.239 196.236C308.903 196.35 308.627 196.518 308.411 196.74C308.201 196.962 308.096 197.226 308.096 197.532C308.096 197.814 308.183 198.045 308.357 198.225C308.531 198.399 308.75 198.54 309.014 198.648C309.278 198.756 309.548 198.846 309.824 198.918L312.074 199.53C312.41 199.62 312.782 199.74 313.19 199.89C313.598 200.034 313.988 200.238 314.36 200.502C314.738 200.76 315.047 201.102 315.287 201.528C315.533 201.954 315.656 202.494 315.656 203.148C315.656 203.844 315.509 204.453 315.215 204.975C314.927 205.491 314.537 205.92 314.045 206.262C313.553 206.598 312.995 206.85 312.371 207.018C311.753 207.186 311.114 207.27 310.454 207.27ZM321.238 207V194.04H326.71C326.836 194.04 327.004 194.046 327.214 194.058C327.43 194.064 327.622 194.082 327.79 194.112C328.564 194.232 329.197 194.487 329.689 194.877C330.187 195.267 330.553 195.759 330.787 196.353C331.021 196.941 331.138 197.598 331.138 198.324C331.138 199.05 331.018 199.71 330.778 200.304C330.544 200.892 330.178 201.381 329.68 201.771C329.188 202.161 328.558 202.416 327.79 202.536C327.622 202.56 327.43 202.578 327.214 202.59C326.998 202.602 326.83 202.608 326.71 202.608H323.686V207H321.238ZM323.686 200.322H326.602C326.728 200.322 326.866 200.316 327.016 200.304C327.166 200.292 327.304 200.268 327.43 200.232C327.76 200.142 328.015 199.992 328.195 199.782C328.375 199.566 328.498 199.329 328.564 199.071C328.636 198.807 328.672 198.558 328.672 198.324C328.672 198.09 328.636 197.844 328.564 197.586C328.498 197.322 328.375 197.085 328.195 196.875C328.015 196.659 327.76 196.506 327.43 196.416C327.304 196.38 327.166 196.356 327.016 196.344C326.866 196.332 326.728 196.326 326.602 196.326H323.686V200.322ZM332.945 207V194.04H338.417C338.543 194.04 338.711 194.046 338.921 194.058C339.137 194.064 339.329 194.082 339.497 194.112C340.271 194.232 340.904 194.487 341.396 194.877C341.894 195.267 342.26 195.759 342.494 196.353C342.728 196.941 342.845 197.598 342.845 198.324C342.845 199.41 342.575 200.34 342.035 201.114C341.495 201.882 340.649 202.356 339.497 202.536L338.417 202.608H335.393V207H332.945ZM340.253 207L337.697 201.726L340.217 201.24L343.025 207H340.253ZM335.393 200.322H338.309C338.435 200.322 338.573 200.316 338.723 200.304C338.873 200.292 339.011 200.268 339.137 200.232C339.467 200.142 339.722 199.992 339.902 199.782C340.082 199.566 340.205 199.329 340.271 199.071C340.343 198.807 340.379 198.558 340.379 198.324C340.379 198.09 340.343 197.844 340.271 197.586C340.205 197.322 340.082 197.085 339.902 196.875C339.722 196.659 339.467 196.506 339.137 196.416C339.011 196.38 338.873 196.356 338.723 196.344C338.573 196.332 338.435 196.326 338.309 196.326H335.393V200.322ZM350.566 207.27C349.27 207.27 348.151 206.988 347.209 206.424C346.273 205.86 345.55 205.071 345.04 204.057C344.536 203.043 344.284 201.864 344.284 200.52C344.284 199.176 344.536 197.997 345.04 196.983C345.55 195.969 346.273 195.18 347.209 194.616C348.151 194.052 349.27 193.77 350.566 193.77C351.862 193.77 352.978 194.052 353.914 194.616C354.856 195.18 355.579 195.969 356.083 196.983C356.593 197.997 356.848 199.176 356.848 200.52C356.848 201.864 356.593 203.043 356.083 204.057C355.579 205.071 354.856 205.86 353.914 206.424C352.978 206.988 351.862 207.27 350.566 207.27ZM350.566 204.966C351.388 204.978 352.072 204.801 352.618 204.435C353.164 204.069 353.572 203.55 353.842 202.878C354.118 202.206 354.256 201.42 354.256 200.52C354.256 199.62 354.118 198.84 353.842 198.18C353.572 197.52 353.164 197.007 352.618 196.641C352.072 196.275 351.388 196.086 350.566 196.074C349.744 196.062 349.06 196.239 348.514 196.605C347.968 196.971 347.557 197.49 347.281 198.162C347.011 198.834 346.876 199.62 346.876 200.52C346.876 201.42 347.011 202.2 347.281 202.86C347.557 203.52 347.968 204.033 348.514 204.399C349.06 204.765 349.744 204.954 350.566 204.966ZM361.362 207.27C360.33 207.27 359.478 207.006 358.806 206.478C358.14 205.95 357.666 205.236 357.384 204.336L359.796 203.76C359.85 204.09 360.024 204.378 360.318 204.624C360.612 204.864 360.924 204.984 361.254 204.984C361.482 204.984 361.725 204.921 361.983 204.795C362.247 204.669 362.436 204.468 362.55 204.192C362.622 204.018 362.664 203.805 362.676 203.553C362.688 203.301 362.694 203.01 362.694 202.68V194.04H365.178V202.68C365.178 203.094 365.175 203.454 365.169 203.76C365.169 204.066 365.139 204.354 365.079 204.624C365.025 204.888 364.914 205.164 364.746 205.452C364.38 206.088 363.903 206.55 363.315 206.838C362.727 207.126 362.076 207.27 361.362 207.27ZM367.873 207V194.04H376.333V196.326H370.321V199.098H375.253V201.384H370.321V204.714H376.333V207H367.873ZM381.496 207V196.326H377.41V194.04H388.03V196.326H383.944V207H381.496ZM395.038 207.27C393.742 207.27 392.623 206.988 391.681 206.424C390.745 205.86 390.022 205.071 389.512 204.057C389.008 203.043 388.756 201.864 388.756 200.52C388.756 199.176 389.008 197.997 389.512 196.983C390.022 195.969 390.745 195.18 391.681 194.616C392.623 194.052 393.742 193.77 395.038 193.77C396.334 193.77 397.45 194.052 398.386 194.616C399.328 195.18 400.051 195.969 400.555 196.983C401.065 197.997 401.32 199.176 401.32 200.52C401.32 201.864 401.065 203.043 400.555 204.057C400.051 205.071 399.328 205.86 398.386 206.424C397.45 206.988 396.334 207.27 395.038 207.27ZM395.038 204.966C395.86 204.978 396.544 204.801 397.09 204.435C397.636 204.069 398.044 203.55 398.314 202.878C398.59 202.206 398.728 201.42 398.728 200.52C398.728 199.62 398.59 198.84 398.314 198.18C398.044 197.52 397.636 197.007 397.09 196.641C396.544 196.275 395.86 196.086 395.038 196.074C394.216 196.062 393.532 196.239 392.986 196.605C392.44 196.971 392.029 197.49 391.753 198.162C391.483 198.834 391.348 199.62 391.348 200.52C391.348 201.42 391.483 202.2 391.753 202.86C392.029 203.52 392.44 204.033 392.986 204.399C393.532 204.765 394.216 204.954 395.038 204.966ZM408.013 207.27C407.053 207.27 406.186 207.102 405.412 206.766C404.644 206.424 404.011 205.938 403.513 205.308C403.021 204.672 402.709 203.916 402.577 203.04L405.133 202.662C405.313 203.406 405.685 203.979 406.249 204.381C406.813 204.783 407.455 204.984 408.175 204.984C408.577 204.984 408.967 204.921 409.345 204.795C409.723 204.669 410.032 204.483 410.272 204.237C410.518 203.991 410.641 203.688 410.641 203.328C410.641 203.196 410.62 203.07 410.578 202.95C410.542 202.824 410.479 202.707 410.389 202.599C410.299 202.491 410.17 202.389 410.002 202.293C409.84 202.197 409.633 202.11 409.381 202.032L406.015 201.042C405.763 200.97 405.469 200.868 405.133 200.736C404.803 200.604 404.482 200.415 404.17 200.169C403.858 199.923 403.597 199.599 403.387 199.197C403.183 198.789 403.081 198.276 403.081 197.658C403.081 196.788 403.3 196.065 403.738 195.489C404.176 194.913 404.761 194.484 405.493 194.202C406.225 193.92 407.035 193.782 407.923 193.788C408.817 193.8 409.615 193.953 410.317 194.247C411.019 194.541 411.607 194.97 412.081 195.534C412.555 196.092 412.897 196.776 413.107 197.586L410.461 198.036C410.365 197.616 410.188 197.262 409.93 196.974C409.672 196.686 409.363 196.467 409.003 196.317C408.649 196.167 408.277 196.086 407.887 196.074C407.503 196.062 407.14 196.116 406.798 196.236C406.462 196.35 406.186 196.518 405.97 196.74C405.76 196.962 405.655 197.226 405.655 197.532C405.655 197.814 405.742 198.045 405.916 198.225C406.09 198.399 406.309 198.54 406.573 198.648C406.837 198.756 407.107 198.846 407.383 198.918L409.633 199.53C409.969 199.62 410.341 199.74 410.749 199.89C411.157 200.034 411.547 200.238 411.919 200.502C412.297 200.76 412.606 201.102 412.846 201.528C413.092 201.954 413.215 202.494 413.215 203.148C413.215 203.844 413.068 204.453 412.774 204.975C412.486 205.491 412.096 205.92 411.604 206.262C411.112 206.598 410.554 206.85 409.93 207.018C409.312 207.186 408.673 207.27 408.013 207.27Z" fill="#72B37F"/>
<path d="M301.138 305V292.04H305.332C305.434 292.04 305.644 292.043 305.962 292.049C306.28 292.055 306.586 292.076 306.88 292.112C307.924 292.238 308.809 292.601 309.535 293.201C310.261 293.801 310.813 294.563 311.191 295.487C311.569 296.411 311.758 297.422 311.758 298.52C311.758 299.618 311.569 300.629 311.191 301.553C310.813 302.477 310.261 303.239 309.535 303.839C308.809 304.439 307.924 304.802 306.88 304.928C306.586 304.964 306.28 304.985 305.962 304.991C305.644 304.997 305.434 305 305.332 305H301.138ZM303.622 302.696H305.332C305.494 302.696 305.713 302.693 305.989 302.687C306.265 302.675 306.514 302.648 306.736 302.606C307.3 302.492 307.759 302.228 308.113 301.814C308.473 301.4 308.737 300.902 308.905 300.32C309.079 299.738 309.166 299.138 309.166 298.52C309.166 297.872 309.076 297.257 308.896 296.675C308.722 296.093 308.455 295.601 308.095 295.199C307.735 294.797 307.282 294.542 306.736 294.434C306.514 294.386 306.265 294.359 305.989 294.353C305.713 294.347 305.494 294.344 305.332 294.344H303.622V302.696ZM314.098 305V292.04H316.546V305H314.098ZM319.244 305V292.04H321.728L327.362 300.68V292.04H329.846V305H327.362L321.728 296.36V305H319.244ZM333.617 290.69L336.209 287.72H338.225L340.817 290.69H338.567L337.217 289.07L335.867 290.69H333.617ZM331.457 305L335.417 292.04H339.071L343.031 305H340.511L336.983 293.57H337.451L333.977 305H331.457ZM333.833 302.3V300.014H340.673V302.3H333.833ZM344.644 305V292.04H346.84L351.124 300.644L355.408 292.04H357.604V305H355.318V297.26L351.556 305H350.692L346.93 297.26V305H344.644ZM360.311 305V292.04H362.759V305H360.311ZM371.019 305.27C369.723 305.27 368.604 304.988 367.662 304.424C366.726 303.86 366.003 303.071 365.493 302.057C364.989 301.043 364.737 299.864 364.737 298.52C364.737 297.176 364.989 295.997 365.493 294.983C366.003 293.969 366.726 293.18 367.662 292.616C368.604 292.052 369.723 291.77 371.019 291.77C372.507 291.77 373.755 292.139 374.763 292.877C375.777 293.615 376.491 294.614 376.905 295.874L374.439 296.558C374.199 295.772 373.794 295.163 373.224 294.731C372.654 294.293 371.919 294.074 371.019 294.074C370.197 294.074 369.51 294.257 368.958 294.623C368.412 294.989 368.001 295.505 367.725 296.171C367.449 296.837 367.311 297.62 367.311 298.52C367.311 299.42 367.449 300.203 367.725 300.869C368.001 301.535 368.412 302.051 368.958 302.417C369.51 302.783 370.197 302.966 371.019 302.966C371.919 302.966 372.654 302.747 373.224 302.309C373.794 301.871 374.199 301.262 374.439 300.482L376.905 301.166C376.491 302.426 375.777 303.425 374.763 304.163C373.755 304.901 372.507 305.27 371.019 305.27ZM377.635 305L381.595 292.04H385.249L389.209 305H386.689L383.161 293.57H383.629L380.155 305H377.635ZM380.011 302.3V300.014H386.851V302.3H380.011ZM301.138 330V317.04H309.598V319.326H303.586V322.098H308.518V324.384H303.586V327.714H309.598V330H301.138ZM311.756 330V317.04H313.952L318.236 325.644L322.52 317.04H324.716V330H322.43V322.26L318.668 330H317.804L314.042 322.26V330H311.756ZM336.245 330.27C335.429 330.27 334.652 330.126 333.914 329.838C333.176 329.544 332.522 329.112 331.952 328.542C331.388 327.972 330.941 327.267 330.611 326.427C330.287 325.587 330.125 324.618 330.125 323.52C330.125 322.086 330.398 320.868 330.944 319.866C331.496 318.858 332.234 318.09 333.158 317.562C334.088 317.034 335.117 316.77 336.245 316.77C337.913 316.77 339.224 317.157 340.178 317.931C341.132 318.705 341.771 319.8 342.095 321.216L339.593 321.576C339.359 320.82 338.975 320.217 338.441 319.767C337.913 319.311 337.235 319.08 336.407 319.074C335.585 319.062 334.901 319.239 334.355 319.605C333.809 319.971 333.398 320.49 333.122 321.162C332.852 321.834 332.717 322.62 332.717 323.52C332.717 324.42 332.852 325.2 333.122 325.86C333.398 326.52 333.809 327.033 334.355 327.399C334.901 327.765 335.585 327.954 336.407 327.966C336.965 327.978 337.469 327.882 337.919 327.678C338.375 327.474 338.759 327.153 339.071 326.715C339.383 326.277 339.605 325.716 339.737 325.032H337.685V323.142H342.347C342.359 323.22 342.368 323.358 342.374 323.556C342.38 323.754 342.383 323.868 342.383 323.898C342.383 325.14 342.131 326.241 341.627 327.201C341.123 328.161 340.412 328.914 339.494 329.46C338.576 330 337.493 330.27 336.245 330.27ZM344.187 330V317.04H349.659C349.785 317.04 349.953 317.046 350.163 317.058C350.379 317.064 350.571 317.082 350.739 317.112C351.513 317.232 352.146 317.487 352.638 317.877C353.136 318.267 353.502 318.759 353.736 319.353C353.97 319.941 354.087 320.598 354.087 321.324C354.087 322.41 353.817 323.34 353.277 324.114C352.737 324.882 351.891 325.356 350.739 325.536L349.659 325.608H346.635V330H344.187ZM351.495 330L348.939 324.726L351.459 324.24L354.267 330H351.495ZM346.635 323.322H349.551C349.677 323.322 349.815 323.316 349.965 323.304C350.115 323.292 350.253 323.268 350.379 323.232C350.709 323.142 350.964 322.992 351.144 322.782C351.324 322.566 351.447 322.329 351.513 322.071C351.585 321.807 351.621 321.558 351.621 321.324C351.621 321.09 351.585 320.844 351.513 320.586C351.447 320.322 351.324 320.085 351.144 319.875C350.964 319.659 350.709 319.506 350.379 319.416C350.253 319.38 350.115 319.356 349.965 319.344C349.815 319.332 349.677 319.326 349.551 319.326H346.635V323.322ZM361.52 330.27C360.476 330.27 359.558 330.06 358.766 329.64C357.974 329.214 357.356 328.617 356.912 327.849C356.468 327.081 356.246 326.178 356.246 325.14V317.058L358.73 317.04V325.122C358.73 325.548 358.802 325.935 358.946 326.283C359.09 326.631 359.288 326.931 359.54 327.183C359.798 327.435 360.095 327.63 360.431 327.768C360.773 327.9 361.136 327.966 361.52 327.966C361.916 327.966 362.282 327.897 362.618 327.759C362.96 327.621 363.257 327.426 363.509 327.174C363.761 326.922 363.956 326.622 364.094 326.274C364.238 325.926 364.31 325.542 364.31 325.122V317.04H366.794V325.14C366.794 326.178 366.572 327.081 366.128 327.849C365.684 328.617 365.066 329.214 364.274 329.64C363.482 330.06 362.564 330.27 361.52 330.27ZM369.306 330V317.04H374.778C374.904 317.04 375.072 317.046 375.282 317.058C375.498 317.064 375.69 317.082 375.858 317.112C376.632 317.232 377.265 317.487 377.757 317.877C378.255 318.267 378.621 318.759 378.855 319.353C379.089 319.941 379.206 320.598 379.206 321.324C379.206 322.05 379.086 322.71 378.846 323.304C378.612 323.892 378.246 324.381 377.748 324.771C377.256 325.161 376.626 325.416 375.858 325.536C375.69 325.56 375.498 325.578 375.282 325.59C375.066 325.602 374.898 325.608 374.778 325.608H371.754V330H369.306ZM371.754 323.322H374.67C374.796 323.322 374.934 323.316 375.084 323.304C375.234 323.292 375.372 323.268 375.498 323.232C375.828 323.142 376.083 322.992 376.263 322.782C376.443 322.566 376.566 322.329 376.632 322.071C376.704 321.807 376.74 321.558 376.74 321.324C376.74 321.09 376.704 320.844 376.632 320.586C376.566 320.322 376.443 320.085 376.263 319.875C376.083 319.659 375.828 319.506 375.498 319.416C375.372 319.38 375.234 319.356 375.084 319.344C374.934 319.332 374.796 319.326 374.67 319.326H371.754V323.322ZM386.575 330.27C385.279 330.27 384.16 329.988 383.218 329.424C382.282 328.86 381.559 328.071 381.049 327.057C380.545 326.043 380.293 324.864 380.293 323.52C380.293 322.176 380.545 320.997 381.049 319.983C381.559 318.969 382.282 318.18 383.218 317.616C384.16 317.052 385.279 316.77 386.575 316.77C387.871 316.77 388.987 317.052 389.923 317.616C390.865 318.18 391.588 318.969 392.092 319.983C392.602 320.997 392.857 322.176 392.857 323.52C392.857 324.864 392.602 326.043 392.092 327.057C391.588 328.071 390.865 328.86 389.923 329.424C388.987 329.988 387.871 330.27 386.575 330.27ZM386.575 327.966C387.397 327.978 388.081 327.801 388.627 327.435C389.173 327.069 389.581 326.55 389.851 325.878C390.127 325.206 390.265 324.42 390.265 323.52C390.265 322.62 390.127 321.84 389.851 321.18C389.581 320.52 389.173 320.007 388.627 319.641C388.081 319.275 387.397 319.086 386.575 319.074C385.753 319.062 385.069 319.239 384.523 319.605C383.977 319.971 383.566 320.49 383.29 321.162C383.02 321.834 382.885 322.62 382.885 323.52C382.885 324.42 383.02 325.2 383.29 325.86C383.566 326.52 383.977 327.033 384.523 327.399C385.069 327.765 385.753 327.954 386.575 327.966Z" fill="#72B37F"/>
<path d="M647.138 171V158.04H655.598V160.326H649.586V163.098H654.518V165.384H649.586V168.714H655.598V171H647.138ZM657.756 171V158.04H660.24L665.874 166.68V158.04H668.358V171H665.874L660.24 162.36V171H657.756ZM673.875 171V160.326H669.789V158.04H680.409V160.326H676.323V171H673.875ZM681.855 171V158.04H687.327C687.453 158.04 687.621 158.046 687.831 158.058C688.047 158.064 688.239 158.082 688.407 158.112C689.181 158.232 689.814 158.487 690.306 158.877C690.804 159.267 691.17 159.759 691.404 160.353C691.638 160.941 691.755 161.598 691.755 162.324C691.755 163.41 691.485 164.34 690.945 165.114C690.405 165.882 689.559 166.356 688.407 166.536L687.327 166.608H684.303V171H681.855ZM689.163 171L686.607 165.726L689.127 165.24L691.935 171H689.163ZM684.303 164.322H687.219C687.345 164.322 687.483 164.316 687.633 164.304C687.783 164.292 687.921 164.268 688.047 164.232C688.377 164.142 688.632 163.992 688.812 163.782C688.992 163.566 689.115 163.329 689.181 163.071C689.253 162.807 689.289 162.558 689.289 162.324C689.289 162.09 689.253 161.844 689.181 161.586C689.115 161.322 688.992 161.085 688.812 160.875C688.632 160.659 688.377 160.506 688.047 160.416C687.921 160.38 687.783 160.356 687.633 160.344C687.483 160.332 687.345 160.326 687.219 160.326H684.303V164.322ZM693.914 171V158.04H702.374V160.326H696.362V163.098H701.294V165.384H696.362V168.714H702.374V171H693.914ZM707.321 171L703.361 158.04H705.881L709.121 168.696L712.415 158.04H714.935L710.975 171H707.321ZM716.471 171V158.04H718.919V171H716.471ZM726.513 171.27C725.553 171.27 724.686 171.102 723.912 170.766C723.144 170.424 722.511 169.938 722.013 169.308C721.521 168.672 721.209 167.916 721.077 167.04L723.633 166.662C723.813 167.406 724.185 167.979 724.749 168.381C725.313 168.783 725.955 168.984 726.675 168.984C727.077 168.984 727.467 168.921 727.845 168.795C728.223 168.669 728.532 168.483 728.772 168.237C729.018 167.991 729.141 167.688 729.141 167.328C729.141 167.196 729.12 167.07 729.078 166.95C729.042 166.824 728.979 166.707 728.889 166.599C728.799 166.491 728.67 166.389 728.502 166.293C728.34 166.197 728.133 166.11 727.881 166.032L724.515 165.042C724.263 164.97 723.969 164.868 723.633 164.736C723.303 164.604 722.982 164.415 722.67 164.169C722.358 163.923 722.097 163.599 721.887 163.197C721.683 162.789 721.581 162.276 721.581 161.658C721.581 160.788 721.8 160.065 722.238 159.489C722.676 158.913 723.261 158.484 723.993 158.202C724.725 157.92 725.535 157.782 726.423 157.788C727.317 157.8 728.115 157.953 728.817 158.247C729.519 158.541 730.107 158.97 730.581 159.534C731.055 160.092 731.397 160.776 731.607 161.586L728.961 162.036C728.865 161.616 728.688 161.262 728.43 160.974C728.172 160.686 727.863 160.467 727.503 160.317C727.149 160.167 726.777 160.086 726.387 160.074C726.003 160.062 725.64 160.116 725.298 160.236C724.962 160.35 724.686 160.518 724.47 160.74C724.26 160.962 724.155 161.226 724.155 161.532C724.155 161.814 724.242 162.045 724.416 162.225C724.59 162.399 724.809 162.54 725.073 162.648C725.337 162.756 725.607 162.846 725.883 162.918L728.133 163.53C728.469 163.62 728.841 163.74 729.249 163.89C729.657 164.034 730.047 164.238 730.419 164.502C730.797 164.76 731.106 165.102 731.346 165.528C731.592 165.954 731.715 166.494 731.715 167.148C731.715 167.844 731.568 168.453 731.274 168.975C730.986 169.491 730.596 169.92 730.104 170.262C729.612 170.598 729.054 170.85 728.43 171.018C727.812 171.186 727.173 171.27 726.513 171.27ZM736.699 171V160.326H732.613V158.04H743.233V160.326H739.147V171H736.699ZM743.428 171L747.388 158.04H751.042L755.002 171H752.482L748.954 159.57H749.422L745.948 171H743.428ZM745.804 168.3V166.014H752.644V168.3H745.804ZM647.318 196V183.04H649.766V196H647.318ZM652.465 196V183.04H654.949L660.583 191.68V183.04H663.067V196H660.583L654.949 187.36V196H652.465ZM665.578 196V183.04H669.772C669.874 183.04 670.084 183.043 670.402 183.049C670.72 183.055 671.026 183.076 671.32 183.112C672.364 183.238 673.249 183.601 673.975 184.201C674.701 184.801 675.253 185.563 675.631 186.487C676.009 187.411 676.198 188.422 676.198 189.52C676.198 190.618 676.009 191.629 675.631 192.553C675.253 193.477 674.701 194.239 673.975 194.839C673.249 195.439 672.364 195.802 671.32 195.928C671.026 195.964 670.72 195.985 670.402 195.991C670.084 195.997 669.874 196 669.772 196H665.578ZM668.062 193.696H669.772C669.934 193.696 670.153 193.693 670.429 193.687C670.705 193.675 670.954 193.648 671.176 193.606C671.74 193.492 672.199 193.228 672.553 192.814C672.913 192.4 673.177 191.902 673.345 191.32C673.519 190.738 673.606 190.138 673.606 189.52C673.606 188.872 673.516 188.257 673.336 187.675C673.162 187.093 672.895 186.601 672.535 186.199C672.175 185.797 671.722 185.542 671.176 185.434C670.954 185.386 670.705 185.359 670.429 185.353C670.153 185.347 669.934 185.344 669.772 185.344H668.062V193.696ZM678.537 196V183.04H680.985V196H678.537ZM686.473 196L682.513 183.04H685.033L688.273 193.696L691.567 183.04H694.087L690.127 196H686.473ZM695.623 196V183.04H698.071V196H695.623ZM700.769 196V183.04H704.963C705.065 183.04 705.275 183.043 705.593 183.049C705.911 183.055 706.217 183.076 706.511 183.112C707.555 183.238 708.44 183.601 709.166 184.201C709.892 184.801 710.444 185.563 710.822 186.487C711.2 187.411 711.389 188.422 711.389 189.52C711.389 190.618 711.2 191.629 710.822 192.553C710.444 193.477 709.892 194.239 709.166 194.839C708.44 195.439 707.555 195.802 706.511 195.928C706.217 195.964 705.911 195.985 705.593 195.991C705.275 195.997 705.065 196 704.963 196H700.769ZM703.253 193.696H704.963C705.125 193.696 705.344 193.693 705.62 193.687C705.896 193.675 706.145 193.648 706.367 193.606C706.931 193.492 707.39 193.228 707.744 192.814C708.104 192.4 708.368 191.902 708.536 191.32C708.71 190.738 708.797 190.138 708.797 189.52C708.797 188.872 708.707 188.257 708.527 187.675C708.353 187.093 708.086 186.601 707.726 186.199C707.366 185.797 706.913 185.542 706.367 185.434C706.145 185.386 705.896 185.359 705.62 185.353C705.344 185.347 705.125 185.344 704.963 185.344H703.253V193.696ZM718.823 196.27C717.779 196.27 716.861 196.06 716.069 195.64C715.277 195.214 714.659 194.617 714.215 193.849C713.771 193.081 713.549 192.178 713.549 191.14V183.058L716.033 183.04V191.122C716.033 191.548 716.105 191.935 716.249 192.283C716.393 192.631 716.591 192.931 716.843 193.183C717.101 193.435 717.398 193.63 717.734 193.768C718.076 193.9 718.439 193.966 718.823 193.966C719.219 193.966 719.585 193.897 719.921 193.759C720.263 193.621 720.56 193.426 720.812 193.174C721.064 192.922 721.259 192.622 721.397 192.274C721.541 191.926 721.613 191.542 721.613 191.122V183.04H724.097V191.14C724.097 192.178 723.875 193.081 723.431 193.849C722.987 194.617 722.369 195.214 721.577 195.64C720.785 196.06 719.867 196.27 718.823 196.27ZM725.164 196L729.124 183.04H732.778L736.738 196H734.218L730.69 184.57H731.158L727.684 196H725.164ZM727.54 193.3V191.014H734.38V193.3H727.54ZM738.531 196V183.04H740.979V193.714H746.559V196H738.531Z" fill="#469C57"/>
<path d="M137.878 220.5C137.878 235.412 100.404 247.763 85.7687 247.763C70.7687 231.763 91.3784 248.912 91.3784 234C93.8784 233.5 121.879 225.5 133.879 213C133.388 213.5 137.878 205.588 137.878 220.5Z" fill="url(#paint19_linear_196_223)"/>
<path d="M91.8784 178.083H104.212C104.212 177.266 104.537 176.481 105.115 175.903C105.693 175.325 106.477 175 107.295 175C108.113 175 108.897 175.325 109.475 175.903C110.054 176.481 110.378 177.266 110.378 178.083H122.712V181.167H121.17V198.125H112.306L115.003 207.375H111.92L109.222 198.125H105.368L102.67 207.375H99.5868L102.285 198.125H93.4201V181.167H91.8784V178.083ZM96.5034 181.167V195.042H118.087V181.167H96.5034Z" fill="#8C8C8C"/>
<g clip-path="url(#clip0_196_223)">
<path d="M542.045 182C543.924 182 545.462 183.52 545.462 185.417V202.5C545.462 204.396 543.941 205.917 542.045 205.917H548.878V209.333H507.878V205.917H514.712C512.833 205.917 511.295 204.396 511.295 202.5V185.417C511.295 183.52 512.816 182 514.712 182H542.045ZM542.045 185.417H514.712V202.5H542.045V185.417ZM528.378 195.667C532.154 195.667 535.212 197.204 535.212 199.083V200.792H521.545V199.083C521.545 197.204 524.603 195.667 528.378 195.667ZM528.378 187.125C530.275 187.125 531.795 188.662 531.795 190.542C531.795 192.421 530.275 193.958 528.378 193.958C526.482 193.958 524.962 192.438 524.962 190.542C524.962 188.645 526.499 187.125 528.378 187.125Z" fill="#8C8C8C"/>
</g>
<defs>
<filter id="filter0_d_196_223" x="47.8784" y="13" width="104" height="108" filterUnits="userSpaceOnUse" color-interpolation-filters="sRGB">
<feFlood flood-opacity="0" result="BackgroundImageFix"/>
<feColorMatrix in="SourceAlpha" type="matrix" values="0 0 0 0 0 0 0 0 0 0 0 0 0 0 0 0 0 0 127 0" result="hardAlpha"/>
<feOffset dy="4"/>
<feGaussianBlur stdDeviation="2"/>
<feComposite in2="hardAlpha" operator="out"/>
<feColorMatrix type="matrix" values="0 0 0 0 0 0 0 0 0 0 0 0 0 0 0 0 0 0 0.25 0"/>
<feBlend mode="normal" in2="BackgroundImageFix" result="effect1_dropShadow_196_223"/>
<feBlend mode="normal" in="SourceGraphic" in2="effect1_dropShadow_196_223" result="shape"/>
</filter>
<filter id="filter1_d_196_223" x="47.8784" y="126" width="104" height="108" filterUnits="userSpaceOnUse" color-interpolation-filters="sRGB">
<feFlood flood-opacity="0" result="BackgroundImageFix"/>
<feColorMatrix in="SourceAlpha" type="matrix" values="0 0 0 0 0 0 0 0 0 0 0 0 0 0 0 0 0 0 127 0" result="hardAlpha"/>
<feOffset dy="4"/>
<feGaussianBlur stdDeviation="2"/>
<feComposite in2="hardAlpha" operator="out"/>
<feColorMatrix type="matrix" values="0 0 0 0 0 0 0 0 0 0 0 0 0 0 0 0 0 0 0.25 0"/>
<feBlend mode="normal" in2="BackgroundImageFix" result="effect1_dropShadow_196_223"/>
<feBlend mode="normal" in="SourceGraphic" in2="effect1_dropShadow_196_223" result="shape"/>
</filter>
<filter id="filter2_d_196_223" x="47.8784" y="246" width="104" height="108" filterUnits="userSpaceOnUse" color-interpolation-filters="sRGB">
<feFlood flood-opacity="0" result="BackgroundImageFix"/>
<feColorMatrix in="SourceAlpha" type="matrix" values="0 0 0 0 0 0 0 0 0 0 0 0 0 0 0 0 0 0 127 0" result="hardAlpha"/>
<feOffset dy="4"/>
<feGaussianBlur stdDeviation="2"/>
<feComposite in2="hardAlpha" operator="out"/>
<feColorMatrix type="matrix" values="0 0 0 0 0 0 0 0 0 0 0 0 0 0 0 0 0 0 0.25 0"/>
<feBlend mode="normal" in2="BackgroundImageFix" result="effect1_dropShadow_196_223"/>
<feBlend mode="normal" in="SourceGraphic" in2="effect1_dropShadow_196_223" result="shape"/>
</filter>
<filter id="filter3_d_196_223" x="252.878" y="17" width="188" height="100" filterUnits="userSpaceOnUse" color-interpolation-filters="sRGB">
<feFlood flood-opacity="0" result="BackgroundImageFix"/>
<feColorMatrix in="SourceAlpha" type="matrix" values="0 0 0 0 0 0 0 0 0 0 0 0 0 0 0 0 0 0 127 0" result="hardAlpha"/>
<feOffset dy="4"/>
<feGaussianBlur stdDeviation="2"/>
<feComposite in2="hardAlpha" operator="out"/>
<feColorMatrix type="matrix" values="0 0 0 0 0 0 0 0 0 0 0 0 0 0 0 0 0 0 0.25 0"/>
<feBlend mode="normal" in2="BackgroundImageFix" result="effect1_dropShadow_196_223"/>
<feBlend mode="normal" in="SourceGraphic" in2="effect1_dropShadow_196_223" result="shape"/>
</filter>
<filter id="filter4_d_196_223" x="606.878" y="131" width="188" height="100" filterUnits="userSpaceOnUse" color-interpolation-filters="sRGB">
<feFlood flood-opacity="0" result="BackgroundImageFix"/>
<feColorMatrix in="SourceAlpha" type="matrix" values="0 0 0 0 0 0 0 0 0 0 0 0 0 0 0 0 0 0 127 0" result="hardAlpha"/>
<feOffset dy="4"/>
<feGaussianBlur stdDeviation="2"/>
<feComposite in2="hardAlpha" operator="out"/>
<feColorMatrix type="matrix" values="0 0 0 0 0 0 0 0 0 0 0 0 0 0 0 0 0 0 0.25 0"/>
<feBlend mode="normal" in2="BackgroundImageFix" result="effect1_dropShadow_196_223"/>
<feBlend mode="normal" in="SourceGraphic" in2="effect1_dropShadow_196_223" result="shape"/>
</filter>
<filter id="filter5_d_196_223" x="252.878" y="141" width="188" height="100" filterUnits="userSpaceOnUse" color-interpolation-filters="sRGB">
<feFlood flood-opacity="0" result="BackgroundImageFix"/>
<feColorMatrix in="SourceAlpha" type="matrix" values="0 0 0 0 0 0 0 0 0 0 0 0 0 0 0 0 0 0 127 0" result="hardAlpha"/>
<feOffset dy="4"/>
<feGaussianBlur stdDeviation="2"/>
<feComposite in2="hardAlpha" operator="out"/>
<feColorMatrix type="matrix" values="0 0 0 0 0 0 0 0 0 0 0 0 0 0 0 0 0 0 0.25 0"/>
<feBlend mode="normal" in2="BackgroundImageFix" result="effect1_dropShadow_196_223"/>
<feBlend mode="normal" in="SourceGraphic" in2="effect1_dropShadow_196_223" result="shape"/>
</filter>
<filter id="filter6_d_196_223" x="252.878" y="265" width="188" height="100" filterUnits="userSpaceOnUse" color-interpolation-filters="sRGB">
<feFlood flood-opacity="0" result="BackgroundImageFix"/>
<feColorMatrix in="SourceAlpha" type="matrix" values="0 0 0 0 0 0 0 0 0 0 0 0 0 0 0 0 0 0 127 0" result="hardAlpha"/>
<feOffset dy="4"/>
<feGaussianBlur stdDeviation="2"/>
<feComposite in2="hardAlpha" operator="out"/>
<feColorMatrix type="matrix" values="0 0 0 0 0 0 0 0 0 0 0 0 0 0 0 0 0 0 0.25 0"/>
<feBlend mode="normal" in2="BackgroundImageFix" result="effect1_dropShadow_196_223"/>
<feBlend mode="normal" in="SourceGraphic" in2="effect1_dropShadow_196_223" result="shape"/>
</filter>
<filter id="filter7_d_196_223" x="824.878" y="101" width="153" height="159" filterUnits="userSpaceOnUse" color-interpolation-filters="sRGB">
<feFlood flood-opacity="0" result="BackgroundImageFix"/>
<feColorMatrix in="SourceAlpha" type="matrix" values="0 0 0 0 0 0 0 0 0 0 0 0 0 0 0 0 0 0 127 0" result="hardAlpha"/>
<feOffset dy="4"/>
<feGaussianBlur stdDeviation="2"/>
<feComposite in2="hardAlpha" operator="out"/>
<feColorMatrix type="matrix" values="0 0 0 0 0 0 0 0 0 0 0 0 0 0 0 0 0 0 0.25 0"/>
<feBlend mode="normal" in2="BackgroundImageFix" result="effect1_dropShadow_196_223"/>
<feBlend mode="normal" in="SourceGraphic" in2="effect1_dropShadow_196_223" result="shape"/>
</filter>
<filter id="filter8_d_196_223" x="461.878" y="126" width="114" height="118" filterUnits="userSpaceOnUse" color-interpolation-filters="sRGB">
<feFlood flood-opacity="0" result="BackgroundImageFix"/>
<feColorMatrix in="SourceAlpha" type="matrix" values="0 0 0 0 0 0 0 0 0 0 0 0 0 0 0 0 0 0 127 0" result="hardAlpha"/>
<feOffset dy="4"/>
<feGaussianBlur stdDeviation="2"/>
<feComposite in2="hardAlpha" operator="out"/>
<feColorMatrix type="matrix" values="0 0 0 0 0 0 0 0 0 0 0 0 0 0 0 0 0 0 0.25 0"/>
<feBlend mode="normal" in2="BackgroundImageFix" result="effect1_dropShadow_196_223"/>
<feBlend mode="normal" in="SourceGraphic" in2="effect1_dropShadow_196_223" result="shape"/>
</filter>
<filter id="filter9_d_196_223" x="837.878" y="114" width="128" height="133" filterUnits="userSpaceOnUse" color-interpolation-filters="sRGB">
<feFlood flood-opacity="0" result="BackgroundImageFix"/>
<feColorMatrix in="SourceAlpha" type="matrix" values="0 0 0 0 0 0 0 0 0 0 0 0 0 0 0 0 0 0 127 0" result="hardAlpha"/>
<feOffset dy="4"/>
<feGaussianBlur stdDeviation="2"/>
<feComposite in2="hardAlpha" operator="out"/>
<feColorMatrix type="matrix" values="0 0 0 0 0 0 0 0 0 0 0 0 0 0 0 0 0 0 0.25 0"/>
<feBlend mode="normal" in2="BackgroundImageFix" result="effect1_dropShadow_196_223"/>
<feBlend mode="normal" in="SourceGraphic" in2="effect1_dropShadow_196_223" result="shape"/>
</filter>
<linearGradient id="paint0_linear_196_223" x1="99.3784" y1="0" x2="99.3784" y2="126" gradientUnits="userSpaceOnUse">
<stop stop-color="#5BAB5C"/>
<stop offset="1" stop-color="#A3D978"/>
</linearGradient>
<linearGradient id="paint1_linear_196_223" x1="102.378" y1="233" x2="102.378" y2="359" gradientUnits="userSpaceOnUse">
<stop stop-color="#5BAB5C"/>
<stop offset="1" stop-color="#A3D978"/>
</linearGradient>
<linearGradient id="paint2_linear_196_223" x1="48.6262" y1="225.063" x2="137.193" y2="129.937" gradientUnits="userSpaceOnUse">
<stop stop-color="#5BAB5C"/>
<stop offset="1" stop-color="#A3D978"/>
</linearGradient>
<linearGradient id="paint3_linear_196_223" x1="303.726" y1="311" x2="91.4455" y2="311" gradientUnits="userSpaceOnUse">
<stop stop-color="#469C57"/>
<stop offset="1" stop-color="#9BE83A" stop-opacity="0.54"/>
</linearGradient>
<linearGradient id="paint4_linear_196_223" x1="303.726" y1="187" x2="91.4455" y2="187" gradientUnits="userSpaceOnUse">
<stop stop-color="#469C57"/>
<stop offset="1" stop-color="#9BE83A" stop-opacity="0.54"/>
</linearGradient>
<linearGradient id="paint5_linear_196_223" x1="303.726" y1="63" x2="91.4455" y2="63" gradientUnits="userSpaceOnUse">
<stop stop-color="#469C57"/>
<stop offset="1" stop-color="#9BE83A" stop-opacity="0.54"/>
</linearGradient>
<linearGradient id="paint6_linear_196_223" x1="519.994" y1="63" x2="277.567" y2="63" gradientUnits="userSpaceOnUse">
<stop stop-color="#469C57"/>
<stop offset="1" stop-color="#9BE83A" stop-opacity="0.54"/>
</linearGradient>
<linearGradient id="paint7_linear_196_223" x1="519.994" y1="311" x2="277.567" y2="311" gradientUnits="userSpaceOnUse">
<stop stop-color="#469C57"/>
<stop offset="1" stop-color="#9BE83A" stop-opacity="0.54"/>
</linearGradient>
<linearGradient id="paint8_linear_196_223" x1="537.664" y1="63" x2="649.093" y2="63" gradientUnits="userSpaceOnUse">
<stop stop-color="#469C57"/>
<stop offset="1" stop-color="#9BE83A"/>
</linearGradient>
<linearGradient id="paint9_linear_196_223" x1="426.664" y1="187" x2="538.093" y2="187" gradientUnits="userSpaceOnUse">
<stop stop-color="#469C57"/>
<stop offset="1" stop-color="#9BE83A"/>
</linearGradient>
<linearGradient id="paint10_linear_196_223" x1="590.164" y1="180" x2="753.593" y2="180" gradientUnits="userSpaceOnUse">
<stop stop-color="#469C57"/>
<stop offset="1" stop-color="#9BE83A"/>
</linearGradient>
<linearGradient id="paint11_linear_196_223" x1="748.164" y1="180" x2="911.593" y2="180" gradientUnits="userSpaceOnUse">
<stop stop-color="#469C57"/>
<stop offset="1" stop-color="#9BE83A"/>
</linearGradient>
<linearGradient id="paint12_linear_196_223" x1="523.664" y1="325" x2="635.093" y2="325" gradientUnits="userSpaceOnUse">
<stop stop-color="#469C57"/>
<stop offset="1" stop-color="#9BE83A"/>
</linearGradient>
<linearGradient id="paint13_linear_196_223" x1="99.8784" y1="51.5" x2="134.378" y2="27" gradientUnits="userSpaceOnUse">
<stop stop-color="white" stop-opacity="0.7"/>
<stop offset="1" stop-color="#E3E0E0"/>
</linearGradient>
<linearGradient id="paint14_linear_196_223" x1="99.8784" y1="164.5" x2="134.378" y2="140" gradientUnits="userSpaceOnUse">
<stop stop-color="white" stop-opacity="0.7"/>
<stop offset="1" stop-color="#E3E0E0"/>
</linearGradient>
<linearGradient id="paint15_linear_196_223" x1="99.8784" y1="284.5" x2="134.378" y2="260" gradientUnits="userSpaceOnUse">
<stop stop-color="white" stop-opacity="0.7"/>
<stop offset="1" stop-color="#E3E0E0"/>
</linearGradient>
<linearGradient id="paint16_linear_196_223" x1="901.878" y1="252" x2="901.438" y2="101.001" gradientUnits="userSpaceOnUse">
<stop stop-color="#469C57"/>
<stop offset="1" stop-color="#9BE83A"/>
</linearGradient>
<linearGradient id="paint17_linear_196_223" x1="518.878" y1="168.35" x2="556.875" y2="141.264" gradientUnits="userSpaceOnUse">
<stop stop-color="white" stop-opacity="0.97"/>
<stop offset="1" stop-color="#E3E0E0"/>
</linearGradient>
<linearGradient id="paint18_linear_196_223" x1="901.878" y1="162.125" x2="945.003" y2="131.5" gradientUnits="userSpaceOnUse">
<stop stop-color="white" stop-opacity="0.97"/>
<stop offset="1" stop-color="#E3E0E0"/>
</linearGradient>
<linearGradient id="paint19_linear_196_223" x1="109.089" y1="211.345" x2="109.089" y2="247.763" gradientUnits="userSpaceOnUse">
<stop stop-color="#85C66C" stop-opacity="0.96"/>
<stop offset="1" stop-color="#5EAD5D" stop-opacity="0.95"/>
</linearGradient>
<clipPath id="clip0_196_223">
<rect width="41" height="41" fill="white" transform="translate(507.878 175)"/>
</clipPath>
</defs>
</svg>
