<svg width="128" height="105" viewBox="0 0 128 78" fill="none" xmlns="http://www.w3.org/2000/svg">
<path d="M12.4068 47.567C11.834 49.1557 10.6739 50.4549 9.17307 51.1885C7.67225 51.9222 5.94898 52.0324 4.36942 51.4959C2.78986 50.9593 1.47849 49.8182 0.713961 48.3151C-0.0505709 46.8119 -0.208012 45.0652 0.27509 43.446C0.147119 43.836 0.27509 43.433 0.27509 43.433C0.502651 42.7172 0.767499 42.0142 1.06852 41.327C1.5804 40.092 2.33543 38.389 3.372 36.374C5.48354 32.344 8.77241 26.975 13.6225 21.606C23.4124 10.751 39.4472 0 63.9282 0C88.4092 0 104.444 10.751 114.234 21.606C119.459 27.4297 123.697 34.0939 126.775 41.327L127.364 42.796C127.402 42.9 127.53 43.576 127.658 44.226L127.914 45.5C127.914 45.5 128.989 49.829 123.537 51.662C121.932 52.2066 120.179 52.0829 118.664 51.3178C117.148 50.5528 115.992 49.2087 115.45 47.58V47.541L115.373 47.333C114.73 45.663 113.995 44.0311 113.172 42.445C110.896 38.0837 108.084 34.0342 104.802 30.394C96.9961 21.749 84.2373 13 63.9282 13C43.6191 13 30.8603 21.749 23.054 30.394C18.8276 35.1009 15.3907 40.4808 12.8803 46.319C12.746 46.6545 12.618 46.9926 12.4964 47.333L12.4068 47.567ZM38.3339 52C38.3339 45.1044 41.0304 38.4912 45.8303 33.6152C50.6301 28.7393 57.1402 26 63.9282 26C70.7162 26 77.2262 28.7393 82.0261 33.6152C86.826 38.4912 89.5225 45.1044 89.5225 52C89.5225 58.8956 86.826 65.5088 82.0261 70.3848C77.2262 75.2607 70.7162 78 63.9282 78C57.1402 78 50.6301 75.2607 45.8303 70.3848C41.0304 65.5088 38.3339 58.8956 38.3339 52Z" fill="#303030"/>
</svg>
